<svg xmlns="http://www.w3.org/2000/svg" viewBox="0 0 64 64" width="64" height="64">
  <!-- Studio Nathan: 밤하늘의 등잔 -->
  <defs>
    <linearGradient id="sky" x1="0" y1="0" x2="0" y2="1"><stop offset="0" stop-color="#1a1d48"/><stop offset="1" stop-color="#2c2a66"/></linearGradient>
    <radialGradient id="glow" cx="0.5" cy="0.5" r="0.5"><stop offset="0" stop-color="#ffd27a" stop-opacity="0.55"/><stop offset="1" stop-color="#ffd27a" stop-opacity="0"/></radialGradient>
    <linearGradient id="flame-fill" x1="0" y1="1" x2="0" y2="0">
    <stop offset="0" stop-color="#ef8a2c"/><stop offset="0.55" stop-color="#f4b942"/><stop offset="1" stop-color="#ffe08a"/>
  </linearGradient>
  </defs>
  <rect width="64" height="64" rx="14" fill="url(#sky)"/>
  <g transform="translate(32 32.5) scale(0.94) translate(-32 -30.5)">
    <circle cx="56" cy="29" r="15" fill="url(#glow)"/>
    
    <path d="M20 9.5 21.5 14.5 26.5 16 21.5 17.5 20 22.5 18.5 17.5 13.5 16 18.5 14.5Z" fill="#ffe6a6"/>
    <path d="M55.6 37C51.6 33 52 27 56 19.5 60 27 60.4 33 56.4 37Z" fill="url(#flame-fill)"/>
    <path d="M55.9 35.6C54.2 33.2 54.5 30 56.1 26.6 57.7 30 58 33.2 56.4 35.6Z" fill="#fff4cc"/>
    <path d="M6 41C6 34.5 17 31 29 31 37 31 43 32.5 48 35L55.4 36.3C57.9 36.8 57.9 40.2 55.4 40.7L48 42C43 46.5 36 49 28 49 15 49 6 46.5 6 41Z" fill="#c0683f"/>
    <path d="M9 40.5C10 36 19 33.4 29 33.4 35 33.4 40 34.3 44 35.8" fill="none" stroke="#e39a6c" stroke-width="1.6" stroke-linecap="round" opacity=".85"/>
    <ellipse cx="25" cy="34.6" rx="6" ry="1.7" fill="#7e3b22"/>
    <path d="M10 44C17 47 37 47.5 46 42.6" fill="none" stroke="#8f4628" stroke-width="1.4" stroke-linecap="round" opacity=".55"/>
    <ellipse cx="27" cy="49.4" rx="9" ry="1.6" fill="#8f4628"/>
  </g>
</svg>
